<svg width="223" height="209" viewBox="0 0 223 209" fill="none" xmlns="http://www.w3.org/2000/svg">
<path d="M110.667 160.271C101.667 160.271 93.4375 158.276 85.9792 154.292C78.5312 150.307 72.6302 144.771 68.2708 137.688C63.9219 130.604 61.75 122.188 61.75 112.438V44.9375C61.75 42.5781 61.1563 40.4375 59.9792 38.5208C58.7969 36.6042 57.25 35.0573 55.3333 33.875C53.4167 32.6979 51.276 32.1042 48.9167 32.1042C46.5521 32.1042 44.4167 32.6979 42.5 33.875C40.5833 35.0573 39.0677 36.6042 37.9583 38.5208C36.8438 40.4375 36.2917 42.5781 36.2917 44.9375V157.604H0V47.5833C0 38.2917 2.09375 30.1042 6.29167 23.0208C10.5 15.9375 16.3333 10.3333 23.7917 6.20833C31.25 2.07292 39.625 0 48.9167 0C58.3594 0 66.7708 2.07292 74.1458 6.20833C81.5208 10.3333 87.3438 15.9375 91.625 23.0208C95.9167 30.1042 98.0625 38.2917 98.0625 47.5833V115.104C98.0625 117.62 98.651 119.833 99.8333 121.75C101.01 123.667 102.521 125.182 104.354 126.292C106.198 127.391 108.234 127.938 110.458 127.938C112.818 127.938 114.99 127.391 116.979 126.292C118.979 125.182 120.568 123.667 121.75 121.75C122.927 119.833 123.521 117.62 123.521 115.104V47.5833C123.521 38.2917 125.656 30.1042 129.938 23.0208C134.214 15.9375 140.073 10.3333 147.521 6.20833C154.979 2.07292 163.281 0 172.438 0C181.88 0 190.255 2.07292 197.562 6.20833C204.865 10.3333 210.656 15.9375 214.938 23.0208C219.214 30.1042 221.354 38.2917 221.354 47.5833V157.604H185.042V44.7083C185.042 42.349 184.484 40.25 183.375 38.4167C182.276 36.5729 180.771 35.0573 178.854 33.875C176.938 32.6979 174.797 32.1042 172.438 32.1042C170.214 32.1042 168.104 32.6979 166.104 33.875C164.115 35.0573 162.531 36.5729 161.354 38.4167C160.172 40.25 159.583 42.349 159.583 44.7083V112.438C159.583 122.188 157.365 130.604 152.938 137.688C148.521 144.771 142.615 150.307 135.229 154.292C127.854 158.276 119.667 160.271 110.667 160.271Z" fill="#D00000"/>
<mask id="mask0_84_1151" style="mask-type:luminance" maskUnits="userSpaceOnUse" x="184" y="171" width="39" height="38">
<path d="M184.409 171.013H222.102V208.706H184.409V171.013Z" fill="white"/>
</mask>
<g mask="url(#mask0_84_1151)">
<mask id="mask1_84_1151" style="mask-type:luminance" maskUnits="userSpaceOnUse" x="184" y="171" width="39" height="38">
<path d="M203.253 171.013C192.846 171.013 184.409 179.451 184.409 189.862C184.409 200.268 192.846 208.706 203.253 208.706C213.664 208.706 222.102 200.268 222.102 189.862C222.102 179.451 213.664 171.013 203.253 171.013Z" fill="white"/>
</mask>
<g mask="url(#mask1_84_1151)">
<path d="M184.409 171.013H222.102V208.706H184.409V171.013Z" fill="#D00000"/>
</g>
</g>
<path d="M2.94507 192.986C2.70549 192.986 2.49715 193.038 2.32007 193.132C2.1534 193.215 2.00757 193.35 1.88257 193.527C1.75757 193.694 1.65861 193.897 1.5909 194.132C1.53361 194.371 1.50757 194.642 1.50757 194.944C1.50757 195.35 1.55444 195.694 1.6534 195.986C1.76278 196.267 1.92424 196.48 2.13257 196.632C2.3409 196.772 2.61174 196.84 2.94507 196.84C3.17944 196.84 3.40861 196.819 3.63257 196.777C3.86694 196.725 4.12215 196.647 4.4034 196.548V197.569C4.1534 197.668 3.9034 197.736 3.6534 197.777C3.4034 197.829 3.13257 197.861 2.8409 197.861C2.24194 197.861 1.75757 197.746 1.38257 197.507C1.00757 197.257 0.72111 196.913 0.528402 196.465C0.34611 196.022 0.257568 195.507 0.257568 194.923C0.257568 194.496 0.309651 194.1 0.424235 193.736C0.549235 193.376 0.72111 193.069 0.945068 192.819C1.17944 192.559 1.4659 192.355 1.79924 192.215C2.13257 192.064 2.51278 191.986 2.94507 191.986C3.22111 191.986 3.49715 192.022 3.7784 192.09C4.07007 192.163 4.34611 192.257 4.61174 192.382L4.2159 193.361C4.00757 193.267 3.78882 193.184 3.57007 193.111C3.36174 193.027 3.1534 192.986 2.94507 192.986Z" fill="#D00000"/>
<path d="M10.4006 194.923C10.4006 195.355 10.3433 195.751 10.234 196.111C10.135 196.475 9.97355 196.788 9.7548 197.048C9.53084 197.314 9.24439 197.517 8.90063 197.652C8.55168 197.788 8.15063 197.861 7.6923 197.861C7.21834 197.861 6.80688 197.788 6.46313 197.652C6.1298 197.517 5.84855 197.314 5.6298 197.048C5.40584 196.788 5.23918 196.475 5.1298 196.111C5.01522 195.751 4.96313 195.35 4.96313 194.902C4.96313 194.319 5.05688 193.809 5.2548 193.361C5.44751 192.918 5.74439 192.579 6.15063 192.34C6.55168 192.105 7.0673 191.986 7.6923 191.986C8.3173 191.986 8.82251 192.105 9.21313 192.34C9.61418 192.579 9.91105 192.918 10.109 193.361C10.3017 193.809 10.4006 194.329 10.4006 194.923ZM6.23397 194.923C6.23397 195.314 6.28084 195.652 6.3798 195.944C6.48918 196.236 6.65063 196.46 6.85897 196.611C7.0673 196.767 7.34334 196.84 7.6923 196.84C8.03605 196.84 8.3173 196.767 8.52563 196.611C8.73397 196.46 8.88501 196.236 8.98397 195.944C9.07772 195.652 9.1298 195.314 9.1298 194.923C9.1298 194.314 9.01522 193.84 8.79647 193.507C8.57251 193.163 8.20272 192.986 7.6923 192.986C7.35897 192.986 7.07772 193.064 6.85897 193.215C6.65063 193.371 6.48918 193.59 6.3798 193.882C6.28084 194.173 6.23397 194.522 6.23397 194.923Z" fill="#D00000"/>
<path d="M13.0217 192.069C13.7561 192.069 14.2926 192.23 14.6259 192.548C14.9696 192.855 15.1467 193.288 15.1467 193.84C15.1467 194.09 15.1051 194.335 15.0217 194.569C14.9488 194.793 14.8238 194.996 14.6467 195.173C14.4801 195.355 14.2561 195.496 13.9801 195.59C13.6988 195.689 13.3551 195.736 12.9384 195.736H12.4176V197.777H11.2092V192.069H13.0217ZM12.9592 193.048H12.4176V194.757H12.8134C13.0321 194.757 13.2301 194.73 13.3967 194.673C13.5634 194.605 13.6884 194.507 13.7717 194.382C13.8655 194.257 13.9176 194.09 13.9176 193.882C13.9176 193.605 13.8394 193.397 13.6884 193.257C13.5321 193.121 13.2926 193.048 12.9592 193.048Z" fill="#D00000"/>
<path d="M19.1114 197.777H15.8406V192.069H19.1114V193.048H17.0489V194.319H18.9656V195.298H17.0489V196.777H19.1114V197.777Z" fill="#D00000"/>
<path d="M24.9917 197.777H23.45L20.9709 193.465H20.9292C20.9396 193.647 20.95 193.829 20.95 194.007C20.9604 194.189 20.9709 194.371 20.9709 194.548C20.9813 194.73 20.9917 194.913 20.9917 195.09V197.777H19.9292V192.069H21.45L23.9292 196.34H23.95C23.95 196.163 23.9396 195.986 23.9292 195.819C23.9292 195.642 23.9188 195.465 23.9084 195.298C23.9084 195.121 23.8979 194.944 23.8875 194.777V192.069H24.9917V197.777Z" fill="#D00000"/>
<path d="M30.7077 197.777H29.4993V195.319H27.2493V197.777H26.041V192.069H27.2493V194.298H29.4993V192.069H30.7077V197.777Z" fill="#D00000"/>
<path d="M35.2493 197.777L34.8327 196.423H32.7702L32.3535 197.777H31.041L33.0618 192.048H34.541L36.5618 197.777H35.2493ZM34.5618 195.402L34.1452 194.069C34.1139 193.986 34.0827 193.876 34.041 193.736C33.9993 193.6 33.9473 193.46 33.8952 193.319C33.8535 193.168 33.8223 193.038 33.8118 192.923C33.7806 193.038 33.7389 193.173 33.6868 193.34C33.6452 193.496 33.6035 193.642 33.5618 193.777C33.5202 193.918 33.4889 194.017 33.4785 194.069L33.0618 195.402H34.5618Z" fill="#D00000"/>
<path d="M39.0642 194.569H41.3142V197.527C41.0225 197.626 40.71 197.71 40.3767 197.777C40.0538 197.829 39.6944 197.861 39.2934 197.861C38.7205 197.861 38.2361 197.751 37.835 197.527C37.4444 197.293 37.1475 196.96 36.9392 196.527C36.7309 196.085 36.6267 195.548 36.6267 194.923C36.6267 194.314 36.7413 193.793 36.9809 193.361C37.2153 192.918 37.5486 192.579 37.9809 192.34C38.4236 192.105 38.9705 191.986 39.6267 191.986C39.9184 191.986 40.21 192.022 40.5017 192.09C40.8038 192.147 41.0746 192.23 41.3142 192.34L40.9184 193.298C40.7361 193.215 40.533 193.147 40.3142 193.09C40.0903 193.022 39.8559 192.986 39.6059 192.986C39.2569 192.986 38.9496 193.069 38.6892 193.236C38.4392 193.402 38.2361 193.632 38.085 193.923C37.9444 194.204 37.8767 194.543 37.8767 194.944C37.8767 195.309 37.9236 195.632 38.0225 195.923C38.1319 196.215 38.2934 196.444 38.5017 196.611C38.7205 196.767 39.0121 196.84 39.3767 196.84C39.5434 196.84 39.6788 196.835 39.7934 196.819C39.9184 196.809 40.033 196.793 40.1475 196.777V195.569H39.0642V194.569Z" fill="#D00000"/>
<path d="M45.5694 197.777H42.2986V192.069H45.5694V193.048H43.5069V194.319H45.4236V195.298H43.5069V196.777H45.5694V197.777Z" fill="#D00000"/>
<path d="M51.4495 197.777H49.9078L47.4286 193.465H47.387C47.3974 193.647 47.4078 193.829 47.4078 194.007C47.4182 194.189 47.4286 194.371 47.4286 194.548C47.439 194.73 47.4495 194.913 47.4495 195.09V197.777H46.387V192.069H47.9078L50.387 196.34H50.4078C50.4078 196.163 50.3974 195.986 50.387 195.819C50.387 195.642 50.3765 195.465 50.3661 195.298C50.3661 195.121 50.3557 194.944 50.3453 194.777V192.069H51.4495V197.777Z" fill="#D00000"/>
<path d="M2.94523 188.713L1.57023 184.234H1.52856C1.52856 184.349 1.53377 184.515 1.5494 184.734C1.55981 184.942 1.57023 185.166 1.57023 185.401C1.58065 185.64 1.59106 185.854 1.59106 186.047V188.713H0.528564V183.005H2.1744L3.52856 187.359H3.5494L4.96606 183.005H6.63273V188.713H5.4869V186.005C5.4869 185.828 5.4869 185.625 5.4869 185.401C5.49732 185.166 5.51294 184.942 5.52856 184.734C5.53898 184.515 5.5494 184.349 5.5494 184.234H5.52856L4.0494 188.713H2.94523Z" fill="#D00000"/>
<path d="M12.8459 185.859C12.8459 186.291 12.7887 186.687 12.6793 187.047C12.5803 187.411 12.4189 187.724 12.2001 187.984C11.9762 188.25 11.6897 188.453 11.3459 188.588C10.997 188.724 10.5959 188.797 10.1376 188.797C9.66366 188.797 9.2522 188.724 8.90845 188.588C8.57511 188.453 8.29386 188.25 8.07511 187.984C7.85116 187.724 7.68449 187.411 7.57511 187.047C7.46053 186.687 7.40845 186.286 7.40845 185.838C7.40845 185.255 7.5022 184.745 7.70011 184.297C7.89282 183.854 8.1897 183.515 8.59595 183.276C8.99699 183.041 9.51261 182.922 10.1376 182.922C10.7626 182.922 11.2678 183.041 11.6584 183.276C12.0595 183.515 12.3564 183.854 12.5543 184.297C12.747 184.745 12.8459 185.265 12.8459 185.859ZM8.67928 185.859C8.67928 186.25 8.72616 186.588 8.82511 186.88C8.93449 187.172 9.09595 187.396 9.30428 187.547C9.51261 187.703 9.78866 187.776 10.1376 187.776C10.4814 187.776 10.7626 187.703 10.9709 187.547C11.1793 187.396 11.3303 187.172 11.4293 186.88C11.523 186.588 11.5751 186.25 11.5751 185.859C11.5751 185.25 11.4605 184.776 11.2418 184.442C11.0178 184.099 10.648 183.922 10.1376 183.922C9.80428 183.922 9.52303 184 9.30428 184.151C9.09595 184.307 8.93449 184.526 8.82511 184.817C8.72616 185.109 8.67928 185.458 8.67928 185.859Z" fill="#D00000"/>
<path d="M18.3837 185.797C18.3837 186.453 18.2587 186.995 18.0087 187.422C17.7691 187.854 17.415 188.182 16.9462 188.401C16.4722 188.609 15.9097 188.713 15.2587 188.713H13.6545V183.005H15.4462C16.04 183.005 16.5556 183.109 16.9879 183.317C17.4306 183.526 17.7691 183.838 18.0087 184.255C18.2587 184.672 18.3837 185.187 18.3837 185.797ZM17.1337 185.838C17.1337 185.411 17.0712 185.062 16.9462 184.797C16.8212 184.521 16.6337 184.317 16.3837 184.192C16.1441 184.057 15.8525 183.984 15.5087 183.984H14.8629V187.713H15.3837C15.967 187.713 16.4045 187.562 16.6962 187.255C16.9879 186.937 17.1337 186.463 17.1337 185.838Z" fill="#D00000"/>
<path d="M22.4552 188.713H19.1843V183.005H22.4552V183.984H20.3927V185.255H22.3093V186.234H20.3927V187.713H22.4552V188.713Z" fill="#D00000"/>
<path d="M24.9188 183.005C25.4448 183.005 25.8771 183.067 26.2104 183.192C26.5438 183.317 26.7938 183.505 26.9604 183.755C27.1271 184.005 27.2104 184.328 27.2104 184.713C27.2104 184.979 27.1584 185.208 27.0646 185.401C26.9657 185.599 26.8354 185.765 26.6688 185.901C26.5021 186.026 26.325 186.14 26.1479 186.234L27.8354 188.713H26.4813L25.1271 186.526H24.4813V188.713H23.2729V183.005H24.9188ZM24.8354 183.984H24.4813V185.547H24.8563C25.2573 185.547 25.5438 185.479 25.7104 185.338C25.8875 185.203 25.9813 185 25.9813 184.734C25.9813 184.474 25.8823 184.286 25.6896 184.172C25.5073 184.047 25.2209 183.984 24.8354 183.984Z" fill="#D00000"/>
<path d="M33.2246 188.713H31.6829L29.2038 184.401H29.1621C29.1725 184.583 29.1829 184.765 29.1829 184.942C29.1934 185.125 29.2038 185.307 29.2038 185.484C29.2142 185.666 29.2246 185.849 29.2246 186.026V188.713H28.1621V183.005H29.6829L32.1621 187.276H32.1829C32.1829 187.099 32.1725 186.922 32.1621 186.755C32.1621 186.578 32.1517 186.401 32.1413 186.234C32.1413 186.057 32.1309 185.88 32.1204 185.713V183.005H33.2246V188.713Z" fill="#D00000"/>
<path d="M34.2739 188.713V183.005H35.4823V188.713H34.2739Z" fill="#D00000"/>
<path d="M40.0096 188.713L39.5929 187.359H37.5304L37.1138 188.713H35.8013L37.8221 182.984H39.3013L41.3221 188.713H40.0096ZM39.3221 186.338L38.9054 185.005C38.8742 184.922 38.8429 184.812 38.8013 184.672C38.7596 184.536 38.7075 184.396 38.6554 184.255C38.6138 184.104 38.5825 183.974 38.5721 183.859C38.5409 183.974 38.4992 184.109 38.4471 184.276C38.4054 184.432 38.3638 184.578 38.3221 184.713C38.2804 184.854 38.2492 184.953 38.2388 185.005L37.8221 186.338H39.3221Z" fill="#D00000"/>
<path d="M45.7607 183.922C45.5212 183.922 45.3128 183.974 45.1357 184.067C44.9691 184.151 44.8232 184.286 44.6982 184.463C44.5732 184.63 44.4743 184.833 44.4066 185.067C44.3493 185.307 44.3232 185.578 44.3232 185.88C44.3232 186.286 44.3701 186.63 44.4691 186.922C44.5785 187.203 44.7399 187.416 44.9482 187.567C45.1566 187.708 45.4274 187.776 45.7607 187.776C45.9951 187.776 46.2243 187.755 46.4482 187.713C46.6826 187.661 46.9378 187.583 47.2191 187.484V188.505C46.9691 188.604 46.7191 188.672 46.4691 188.713C46.2191 188.765 45.9482 188.797 45.6566 188.797C45.0576 188.797 44.5732 188.682 44.1982 188.442C43.8232 188.192 43.5368 187.849 43.3441 187.401C43.1618 186.958 43.0732 186.442 43.0732 185.859C43.0732 185.432 43.1253 185.036 43.2399 184.672C43.3649 184.312 43.5368 184.005 43.7607 183.755C43.9951 183.495 44.2816 183.291 44.6149 183.151C44.9482 183 45.3285 182.922 45.7607 182.922C46.0368 182.922 46.3128 182.958 46.5941 183.026C46.8857 183.099 47.1618 183.192 47.4274 183.317L47.0316 184.297C46.8232 184.203 46.6045 184.12 46.3857 184.047C46.1774 183.963 45.9691 183.922 45.7607 183.922Z" fill="#D00000"/>
<path d="M52.6956 183.005V186.692C52.6956 187.099 52.6018 187.458 52.4247 187.776C52.2581 188.083 51.9924 188.333 51.6331 188.526C51.2841 188.708 50.8466 188.797 50.3206 188.797C49.5706 188.797 48.9924 188.604 48.5914 188.213C48.2008 187.828 48.0081 187.312 48.0081 186.672V183.005H49.2164V186.505C49.2164 186.979 49.3049 187.312 49.4872 187.505C49.6799 187.687 49.9716 187.776 50.3622 187.776C50.6226 187.776 50.831 187.734 50.9872 187.651C51.1539 187.557 51.2789 187.411 51.3622 187.213C51.4456 187.021 51.4872 186.776 51.4872 186.484V183.005H52.6956Z" fill="#D00000"/>
<path d="M55.3504 183.005C55.8765 183.005 56.3088 183.067 56.6421 183.192C56.9754 183.317 57.2254 183.505 57.3921 183.755C57.5588 184.005 57.6421 184.328 57.6421 184.713C57.6421 184.979 57.59 185.208 57.4963 185.401C57.3973 185.599 57.2671 185.765 57.1004 185.901C56.9338 186.026 56.7567 186.14 56.5796 186.234L58.2671 188.713H56.9129L55.5588 186.526H54.9129V188.713H53.7046V183.005H55.3504ZM55.2671 183.984H54.9129V185.547H55.2879C55.689 185.547 55.9754 185.479 56.1421 185.338C56.3192 185.203 56.4129 185 56.4129 184.734C56.4129 184.474 56.314 184.286 56.1213 184.172C55.939 184.047 55.6525 183.984 55.2671 183.984Z" fill="#D00000"/>
<path d="M62.0728 188.713L61.6562 187.359H59.5937L59.177 188.713H57.8645L59.8853 182.984H61.3645L63.3853 188.713H62.0728ZM61.3853 186.338L60.9687 185.005C60.9374 184.922 60.9062 184.812 60.8645 184.672C60.8228 184.536 60.7708 184.396 60.7187 184.255C60.677 184.104 60.6458 183.974 60.6353 183.859C60.6041 183.974 60.5624 184.109 60.5103 184.276C60.4687 184.432 60.427 184.578 60.3853 184.713C60.3437 184.854 60.3124 184.953 60.302 185.005L59.8853 186.338H61.3853Z" fill="#D00000"/>
<path d="M65.9087 188.713H64.7004V184.005H63.1587V183.005H67.4712V184.005H65.9087V188.713Z" fill="#D00000"/>
<path d="M73.1287 185.859C73.1287 186.291 73.0714 186.687 72.962 187.047C72.863 187.411 72.7016 187.724 72.4828 187.984C72.2589 188.25 71.9724 188.453 71.6287 188.588C71.2797 188.724 70.8787 188.797 70.4203 188.797C69.9464 188.797 69.5349 188.724 69.1912 188.588C68.8578 188.453 68.5766 188.25 68.3578 187.984C68.1339 187.724 67.9672 187.411 67.8578 187.047C67.7432 186.687 67.6912 186.286 67.6912 185.838C67.6912 185.255 67.7849 184.745 67.9828 184.297C68.1755 183.854 68.4724 183.515 68.8787 183.276C69.2797 183.041 69.7953 182.922 70.4203 182.922C71.0453 182.922 71.5505 183.041 71.9412 183.276C72.3422 183.515 72.6391 183.854 72.837 184.297C73.0297 184.745 73.1287 185.265 73.1287 185.859ZM68.962 185.859C68.962 186.25 69.0089 186.588 69.1078 186.88C69.2172 187.172 69.3787 187.396 69.587 187.547C69.7953 187.703 70.0714 187.776 70.4203 187.776C70.7641 187.776 71.0453 187.703 71.2537 187.547C71.462 187.396 71.613 187.172 71.712 186.88C71.8057 186.588 71.8578 186.25 71.8578 185.859C71.8578 185.25 71.7432 184.776 71.5245 184.442C71.3005 184.099 70.9307 183.922 70.4203 183.922C70.087 183.922 69.8057 184 69.587 184.151C69.3787 184.307 69.2172 184.526 69.1078 184.817C69.0089 185.109 68.962 185.458 68.962 185.859Z" fill="#D00000"/>
<path d="M75.5831 183.005C76.1091 183.005 76.5414 183.067 76.8748 183.192C77.2081 183.317 77.4581 183.505 77.6248 183.755C77.7914 184.005 77.8748 184.328 77.8748 184.713C77.8748 184.979 77.8227 185.208 77.7289 185.401C77.63 185.599 77.4998 185.765 77.3331 185.901C77.1664 186.026 76.9893 186.14 76.8123 186.234L78.4998 188.713H77.1456L75.7914 186.526H75.1456V188.713H73.9373V183.005H75.5831ZM75.4998 183.984H75.1456V185.547H75.5206C75.9216 185.547 76.2081 185.479 76.3748 185.338C76.5518 185.203 76.6456 185 76.6456 184.734C76.6456 184.474 76.5466 184.286 76.3539 184.172C76.1716 184.047 75.8852 183.984 75.4998 183.984Z" fill="#D00000"/>
<path d="M82.1805 187.13C82.1805 187.463 82.0972 187.755 81.9305 188.005C81.7743 188.255 81.5399 188.453 81.2222 188.588C80.9149 188.724 80.5347 188.797 80.0763 188.797C79.8784 188.797 79.6857 188.781 79.493 188.755C79.3107 188.724 79.1284 188.692 78.9513 188.651C78.7847 188.599 78.6232 188.526 78.4722 188.442V187.317C78.7326 187.442 79.0138 187.557 79.3055 187.651C79.5972 187.75 79.8888 187.797 80.1805 187.797C80.3732 187.797 80.5243 187.771 80.6388 187.713C80.7638 187.661 80.8524 187.588 80.9097 187.505C80.9618 187.411 80.993 187.307 80.993 187.192C80.993 187.041 80.9409 186.916 80.8472 186.817C80.7482 186.724 80.618 186.63 80.4513 186.547C80.2847 186.453 80.0972 186.354 79.8888 186.255C79.7638 186.187 79.618 186.109 79.4513 186.026C79.2951 185.932 79.1493 185.817 79.0138 185.692C78.8732 185.557 78.7534 185.396 78.6597 185.213C78.5763 185.036 78.5347 184.812 78.5347 184.547C78.5347 184.203 78.6076 183.911 78.7638 183.672C78.9149 183.422 79.1388 183.234 79.4305 183.109C79.7222 182.984 80.0659 182.922 80.4722 182.922C80.7638 182.922 81.0399 182.958 81.3055 183.026C81.5815 183.099 81.868 183.192 82.1597 183.317L81.7638 184.255C81.4982 184.161 81.2638 184.083 81.0555 184.026C80.8472 183.958 80.6388 183.922 80.4305 183.922C80.2743 183.922 80.144 183.953 80.0347 184.005C79.9357 184.047 79.8576 184.12 79.8055 184.213C79.7482 184.297 79.7222 184.396 79.7222 184.505C79.7222 184.646 79.7534 184.765 79.8263 184.859C79.9097 184.942 80.0243 185.026 80.1805 185.109C80.3472 185.192 80.5451 185.297 80.7847 185.422C81.0763 185.562 81.3263 185.708 81.5347 185.859C81.743 186 81.8993 186.172 82.0138 186.38C82.1232 186.578 82.1805 186.828 82.1805 187.13Z" fill="#D00000"/>
<path d="M3.7994 206.841H0.528564V201.133H3.7994V202.112H1.7369V203.383H3.65356V204.362H1.7369V205.841H3.7994V206.841Z" fill="#D00000"/>
<path d="M7.97103 205.258C7.97103 205.591 7.8877 205.883 7.72103 206.133C7.56478 206.383 7.3304 206.581 7.0127 206.716C6.7054 206.852 6.3252 206.925 5.86686 206.925C5.66895 206.925 5.47624 206.909 5.28353 206.883C5.10124 206.852 4.91895 206.821 4.74186 206.779C4.5752 206.727 4.41374 206.654 4.2627 206.571V205.446C4.52311 205.571 4.80436 205.685 5.09603 205.779C5.3877 205.878 5.67936 205.925 5.97103 205.925C6.16374 205.925 6.31478 205.899 6.42936 205.841C6.55436 205.789 6.6429 205.716 6.7002 205.633C6.75228 205.539 6.78353 205.435 6.78353 205.321C6.78353 205.17 6.73144 205.045 6.6377 204.946C6.53874 204.852 6.40853 204.758 6.24186 204.675C6.0752 204.581 5.8877 204.482 5.67936 204.383C5.55436 204.315 5.40853 204.237 5.24186 204.154C5.08561 204.06 4.93978 203.946 4.80436 203.821C4.66374 203.685 4.54395 203.524 4.4502 203.341C4.36686 203.164 4.3252 202.94 4.3252 202.675C4.3252 202.331 4.39811 202.039 4.55436 201.8C4.7054 201.55 4.92936 201.362 5.22103 201.237C5.5127 201.112 5.85644 201.05 6.2627 201.05C6.55436 201.05 6.8304 201.086 7.09603 201.154C7.37207 201.227 7.65853 201.321 7.9502 201.446L7.55436 202.383C7.28874 202.289 7.05436 202.211 6.84603 202.154C6.6377 202.086 6.42936 202.05 6.22103 202.05C6.06478 202.05 5.93457 202.081 5.8252 202.133C5.72624 202.175 5.64811 202.248 5.59603 202.341C5.53874 202.425 5.5127 202.524 5.5127 202.633C5.5127 202.774 5.54395 202.894 5.61686 202.987C5.7002 203.071 5.81478 203.154 5.97103 203.237C6.1377 203.321 6.33561 203.425 6.5752 203.55C6.86686 203.69 7.11686 203.836 7.3252 203.987C7.53353 204.128 7.68978 204.3 7.80436 204.508C7.91374 204.706 7.97103 204.956 7.97103 205.258Z" fill="#D00000"/>
<path d="M10.8186 206.841H9.61027V202.133H8.0686V201.133H12.3811V202.133H10.8186V206.841Z" fill="#D00000"/>
<path d="M17.601 203.925C17.601 204.581 17.476 205.123 17.226 205.55C16.9864 205.982 16.6322 206.31 16.1635 206.529C15.6895 206.737 15.127 206.841 14.476 206.841H12.8718V201.133H14.6635C15.2572 201.133 15.7729 201.237 16.2052 201.446C16.6479 201.654 16.9864 201.966 17.226 202.383C17.476 202.8 17.601 203.315 17.601 203.925ZM16.351 203.966C16.351 203.539 16.2885 203.19 16.1635 202.925C16.0385 202.649 15.851 202.446 15.601 202.321C15.3614 202.185 15.0697 202.112 14.726 202.112H14.0802V205.841H14.601C15.1843 205.841 15.6218 205.69 15.9135 205.383C16.2052 205.065 16.351 204.591 16.351 203.966Z" fill="#D00000"/>
<path d="M23.6711 206.841H19.6711V206.008L21.1086 204.55C21.4003 204.258 21.6295 204.019 21.7961 203.821C21.9732 203.612 22.1086 203.425 22.192 203.258C22.2753 203.091 22.317 202.92 22.317 202.737C22.317 202.519 22.2545 202.352 22.1295 202.237C22.0045 202.112 21.8274 202.05 21.6086 202.05C21.3847 202.05 21.1711 202.107 20.9628 202.216C20.7545 202.315 20.5357 202.456 20.317 202.633L19.6711 201.862C19.8222 201.727 19.9889 201.591 20.1711 201.466C20.3639 201.341 20.5774 201.248 20.817 201.175C21.067 201.091 21.3639 201.05 21.7128 201.05C22.0878 201.05 22.4055 201.123 22.6711 201.258C22.9316 201.383 23.1347 201.565 23.2753 201.8C23.4264 202.039 23.5045 202.3 23.5045 202.591C23.5045 202.914 23.442 203.206 23.317 203.466C23.192 203.716 23.0097 203.977 22.7753 204.237C22.5357 204.487 22.2545 204.769 21.9211 205.071L21.192 205.779V205.821H23.6711V206.841Z" fill="#D00000"/>
<path d="M27.8328 203.987C27.8328 204.446 27.7911 204.857 27.7078 205.216C27.6348 205.581 27.5255 205.894 27.3744 206.154C27.2182 206.404 27.0098 206.602 26.7494 206.737C26.4994 206.862 26.1921 206.925 25.8328 206.925C25.3744 206.925 24.989 206.81 24.6869 206.571C24.3953 206.336 24.1765 206.003 24.0411 205.571C23.9005 205.128 23.8328 204.602 23.8328 203.987C23.8328 203.362 23.8953 202.836 24.0203 202.404C24.1453 201.961 24.3536 201.628 24.6453 201.404C24.9369 201.17 25.3328 201.05 25.8328 201.05C26.2755 201.05 26.6453 201.17 26.9369 201.404C27.239 201.628 27.463 201.961 27.6036 202.404C27.7546 202.836 27.8328 203.362 27.8328 203.987ZM25.0203 203.987C25.0203 204.42 25.0411 204.779 25.0828 205.071C25.1348 205.362 25.2182 205.586 25.3328 205.737C25.4578 205.878 25.6244 205.946 25.8328 205.946C26.0255 205.946 26.1765 205.878 26.2911 205.737C26.4161 205.586 26.4994 205.362 26.5411 205.071C26.5932 204.779 26.6244 204.42 26.6244 203.987C26.6244 203.56 26.5932 203.196 26.5411 202.904C26.4994 202.612 26.4161 202.394 26.2911 202.237C26.1765 202.086 26.0255 202.008 25.8328 202.008C25.6244 202.008 25.4578 202.086 25.3328 202.237C25.2182 202.394 25.1348 202.612 25.0828 202.904C25.0411 203.196 25.0203 203.56 25.0203 203.987Z" fill="#D00000"/>
<path d="M32.0356 206.841H28.0356V206.008L29.4731 204.55C29.7648 204.258 29.994 204.019 30.1606 203.821C30.3377 203.612 30.4731 203.425 30.5565 203.258C30.6398 203.091 30.6815 202.92 30.6815 202.737C30.6815 202.519 30.619 202.352 30.494 202.237C30.369 202.112 30.1919 202.05 29.9731 202.05C29.7492 202.05 29.5356 202.107 29.3273 202.216C29.119 202.315 28.9002 202.456 28.6815 202.633L28.0356 201.862C28.1867 201.727 28.3534 201.591 28.5356 201.466C28.7284 201.341 28.9419 201.248 29.1815 201.175C29.4315 201.091 29.7284 201.05 30.0773 201.05C30.4523 201.05 30.77 201.123 31.0356 201.258C31.2961 201.383 31.4992 201.565 31.6398 201.8C31.7909 202.039 31.869 202.3 31.869 202.591C31.869 202.914 31.8065 203.206 31.6815 203.466C31.5565 203.716 31.3742 203.977 31.1398 204.237C30.9002 204.487 30.619 204.769 30.2856 205.071L29.5565 205.779V205.821H32.0356V206.841Z" fill="#D00000"/>
<path d="M34.3013 203.196C34.645 203.196 34.9523 203.269 35.2179 203.404C35.494 203.529 35.7075 203.727 35.8638 203.987C36.0304 204.237 36.1138 204.55 36.1138 204.925C36.1138 205.341 36.02 205.706 35.8429 206.008C35.6763 206.3 35.4263 206.529 35.0929 206.696C34.7596 206.847 34.3429 206.925 33.8429 206.925C33.5356 206.925 33.2492 206.894 32.9888 206.841C32.7231 206.789 32.494 206.711 32.3013 206.612V205.571C32.494 205.67 32.7284 205.758 33.0096 205.841C33.2856 205.914 33.5513 205.946 33.8013 205.946C34.0356 205.946 34.2284 205.914 34.3846 205.841C34.5513 205.774 34.6763 205.675 34.7596 205.55C34.8534 205.414 34.9054 205.237 34.9054 205.029C34.9054 204.753 34.8065 204.545 34.6138 204.404C34.4315 204.253 34.145 204.175 33.7596 204.175C33.6034 204.175 33.4471 204.19 33.2804 204.216C33.1242 204.248 32.994 204.274 32.8846 204.3L32.4054 204.05L32.6346 201.133H35.7179V202.154H33.6763L33.5721 203.279C33.6659 203.253 33.7648 203.232 33.8638 203.216C33.9731 203.206 34.119 203.196 34.3013 203.196Z" fill="#D00000"/>
</svg>
